<?xml version="1.0" encoding="iso-8859-1"?>
<!-- Generator: Adobe Illustrator 19.0.0, SVG Export Plug-In . SVG Version: 6.00 Build 0)  -->
<svg version="1.1" id="Capa_1" xmlns="http://www.w3.org/2000/svg" xmlns:xlink="http://www.w3.org/1999/xlink" x="0px" y="0px"
	 viewBox="0 0 465 465" style="enable-background:new 0 0 465 465;" xml:space="preserve">
<g>
	<path d="M382.5,268.176c-10.194,0-19.957,1.871-28.978,5.268V156.689c16.537,11.741,36.255,18.073,56.949,18.073
		c13.826,0,27.223-2.815,39.818-8.367c2.265-0.998,3.891-3.049,4.347-5.482c0.456-2.433-0.318-4.934-2.068-6.684l-54.801-54.801
		l26.517-26.517c2.929-2.929,2.929-7.678,0-10.606c-2.929-2.929-7.678-2.929-10.606,0L387.16,88.822l-54.801-54.801
		c-1.75-1.75-4.25-2.527-6.684-2.068c-2.433,0.456-4.484,2.082-5.482,4.347c-7.934,18.001-10.295,37.789-6.828,57.225
		c3.365,18.862,12.046,36.102,25.156,50.063v109.121H290v-49.533c4.142,0,7.5-3.358,7.5-7.5s-3.358-7.5-7.5-7.5v-28.5
		c0-4.142-3.358-7.5-7.5-7.5s-7.5,3.358-7.5,7.5v28.5c-4.142,0-7.5,3.358-7.5,7.5s3.358,7.5,7.5,7.5v125h-35V257.55h2.5
		c4.142,0,7.5-3.358,7.5-7.5s-3.358-7.5-7.5-7.5H150v-67.874c0-12.407-10.093-22.5-22.5-22.5c-9.778,0-18.114,6.271-21.21,15H89.245
		c-3.484-17.096-18.635-30-36.745-30h-20c-4.142,0-7.5,3.358-7.5,7.5s3.358,7.5,7.5,7.5h20c12.407,0,22.5,10.093,22.5,22.5v93.856
		c-41.987,3.804-75,39.183-75,82.144c0,45.491,37.009,82.5,82.5,82.5c37.69,0,69.535-25.415,79.356-60h141.289
		c9.821,34.585,41.666,60,79.356,60c45.491,0,82.5-37.009,82.5-82.5S427.991,268.176,382.5,268.176z M330.061,52.936l103.58,103.58
		c-7.491,2.158-15.248,3.247-23.172,3.247c-22.341,0-43.346-8.701-59.144-24.499C329.409,113.347,321.593,82.02,330.061,52.936z
		 M290,267.709h48.522v13.218c-16.974,10.741-29.768,27.493-35.378,47.249H290V267.709z M225,298.176h-47.5
		c-4.142,0-7.5,3.358-7.5,7.5s3.358,7.5,7.5,7.5H225v15h-63.144c-6.303-22.198-21.678-40.603-41.856-50.947V257.55h105V298.176z
		 M90,182.176h15v89.145c-4.837-1.374-9.848-2.321-15-2.788V182.176z M127.5,167.176c4.136,0,7.5,3.364,7.5,7.5v67.874h-15v-67.874
		C120,170.541,123.364,167.176,127.5,167.176z M82.5,418.176c-37.22,0-67.5-30.28-67.5-67.5s30.28-67.5,67.5-67.5
		s67.5,30.28,67.5,67.5S119.72,418.176,82.5,418.176z M164.644,358.176c0.224-2.472,0.356-4.971,0.356-7.5s-0.132-5.028-0.356-7.5
		h135.713c-0.224,2.472-0.356,4.971-0.356,7.5s0.132,5.028,0.356,7.5H164.644z M382.5,418.176c-37.22,0-67.5-30.28-67.5-67.5
		s30.28-67.5,67.5-67.5s67.5,30.28,67.5,67.5S419.72,418.176,382.5,418.176z"/>
	<path d="M382.5,308.176c-23.435,0-42.5,19.065-42.5,42.5c0,4.884,0.833,9.688,2.474,14.277c1.395,3.899,5.687,5.932,9.588,4.536
		c3.9-1.395,5.931-5.688,4.536-9.588c-1.06-2.964-1.598-6.068-1.598-9.226c0-15.164,12.336-27.5,27.5-27.5s27.5,12.336,27.5,27.5
		s-12.336,27.5-27.5,27.5c-3.158,0-6.262-0.538-9.226-1.598c-3.901-1.395-8.193,0.636-9.588,4.536s0.636,8.193,4.536,9.588
		c4.59,1.641,9.393,2.474,14.277,2.474c23.435,0,42.5-19.065,42.5-42.5S405.935,308.176,382.5,308.176z"/>
	<path d="M82.5,308.176c-23.435,0-42.5,19.065-42.5,42.5c0,4.884,0.833,9.688,2.474,14.277c1.395,3.899,5.687,5.932,9.588,4.536
		c3.9-1.395,5.931-5.688,4.536-9.588c-1.06-2.964-1.598-6.068-1.598-9.226c0-15.164,12.336-27.5,27.5-27.5s27.5,12.336,27.5,27.5
		s-12.336,27.5-27.5,27.5c-3.158,0-6.262-0.538-9.226-1.598c-3.902-1.395-8.193,0.636-9.588,4.536s0.636,8.193,4.536,9.588
		c4.59,1.641,9.393,2.474,14.277,2.474c23.435,0,42.5-19.065,42.5-42.5S105.935,308.176,82.5,308.176z"/>
</g>
<g>
</g>
<g>
</g>
<g>
</g>
<g>
</g>
<g>
</g>
<g>
</g>
<g>
</g>
<g>
</g>
<g>
</g>
<g>
</g>
<g>
</g>
<g>
</g>
<g>
</g>
<g>
</g>
<g>
</g>
</svg>
